<?xml version="1.0" encoding="utf-8"?>
<!-- Generator: Adobe Illustrator 19.2.1, SVG Export Plug-In . SVG Version: 6.00 Build 0)  -->
<svg version="1.1" id="Layer_1" xmlns="http://www.w3.org/2000/svg" xmlns:xlink="http://www.w3.org/1999/xlink" x="0px" y="0px"
	 viewBox="0 0 120.9 30.1" style="enable-background:new 0 0 120.9 30.1;" xml:space="preserve">
<style type="text/css">
	.st0{fill:#54639B;}
	.st1{fill:#EB396C;}
	.st2{fill:#5A4E94;}
	.st3{fill:#314581;}
</style>
<g>
	<g>
		<g>
			<path class="st0" d="M17.6,29.4l8.5-8.5c-0.9,0.9-2.4,0.9-3.4,0L21,19.3l-6.8,6.8c-0.9,0.9-0.9,2.4,0,3.4l0,0
				C15.2,30.4,16.7,30.4,17.6,29.4z"/>
			<path class="st1" d="M17.6,9.2l8.5,8.5c-0.9-0.9-2.4-0.9-3.4,0L21,19.3l-6.8-6.8c-0.9-0.9-0.9-2.4,0-3.4l0,0
				C15.2,8.2,16.7,8.2,17.6,9.2z"/>
			<path class="st2" d="M26.1,21L26.1,21c0.9-0.9,0.9-2.4,0-3.4l0,0c-0.9-0.9-2.4-0.9-3.4,0L21,19.3l1.7,1.7
				C23.6,21.9,25.1,21.9,26.1,21z"/>
		</g>
		<path class="st0" d="M9.2,0.7L0.7,9.2c0.9-0.9,2.4-0.9,3.4,0l1.7,1.7l6.8-6.8c0.9-0.9,0.9-2.4,0-3.4l0,0
			C11.6-0.2,10.1-0.2,9.2,0.7z"/>
		<path class="st1" d="M9.2,21l-8.5-8.5c0.9,0.9,2.4,0.9,3.4,0l1.7-1.7l6.8,6.8c0.9,0.9,0.9,2.4,0,3.4l0,0
			C11.6,21.9,10.1,21.9,9.2,21z"/>
		<path class="st2" d="M0.7,9.2L0.7,9.2c-0.9,0.9-0.9,2.4,0,3.4l0,0c0.9,0.9,2.4,0.9,3.4,0l1.7-1.7L4.1,9.2C3.1,8.2,1.6,8.2,0.7,9.2
			z"/>
	</g>
	<g>
		<path class="st3" d="M41.9,14.2c2.6,0.5,4,1.4,4,3.8c0,2.1-1.6,3.7-4.6,3.7c-3.8,0-4.5-1.9-4.9-3.3c0-0.1,0-0.1,0-0.2
			c0-0.4,0.3-0.6,0.6-0.7c0.1,0,0.2,0,0.3,0c0.3,0,0.6,0.1,0.7,0.5c0.3,1.1,0.8,2.3,3.3,2.3c1.9,0,3.1-0.9,3.1-2.3
			c0-1.4-0.7-1.9-2.7-2.3l-1.3-0.3c-2.5-0.5-3.6-1.5-3.6-3.6c0-1.7,1.3-3.4,4.4-3.4c3,0,4,1.6,4.4,2.8c0,0.1,0,0.2,0,0.2
			c0,0.3-0.3,0.6-0.6,0.7c-0.1,0-0.2,0-0.3,0c-0.3,0-0.6-0.1-0.7-0.5c-0.3-0.9-1-1.9-2.8-1.9c-1.9,0-2.8,1-2.8,2
			c0,1.2,0.6,1.8,2.4,2.2L41.9,14.2z"/>
		<path class="st3" d="M49.7,9.6c0,0.6-0.5,1.1-1.1,1.1c-0.6,0-1.1-0.5-1.1-1.1c0-0.6,0.5-1.1,1.1-1.1C49.2,8.5,49.7,9,49.7,9.6z
			 M47.8,12.9c0-0.4,0.3-0.6,0.7-0.6c0.4,0,0.8,0.2,0.8,0.6v8c0,0.4-0.3,0.7-0.8,0.7c-0.5,0-0.7-0.2-0.7-0.7V12.9z"/>
		<path class="st3" d="M58.1,12.8c0-0.3,0.2-0.6,0.7-0.6c0.4,0,0.7,0.2,0.7,0.7v7.6c0,3.8-2,4.7-4.2,4.7c-1.8,0-2.9-0.6-3.6-1.4
			c-0.1-0.1-0.1-0.2-0.1-0.4c0-0.2,0.1-0.4,0.3-0.6c0.1-0.1,0.3-0.2,0.5-0.2c0.2,0,0.3,0.1,0.5,0.2c0.6,0.7,1.3,1.1,2.3,1.1
			c2.1,0,2.8-1,2.8-3.5c0-0.2,0-0.6,0.1-0.8c-0.5,1-1.5,1.8-2.9,1.8c-2.3,0-4-1.8-4-4.6c0-2.8,1.5-4.8,4-4.8c1.5,0,2.4,0.8,2.9,1.9
			c0-0.2-0.1-0.5-0.1-0.7V12.8z M52.8,16.9c0,2.1,1.1,3.4,2.7,3.4c1.7,0,2.7-1.4,2.7-3.5c0-2-1-3.4-2.7-3.4
			C53.8,13.4,52.8,14.8,52.8,16.9z"/>
		<path class="st3" d="M69.5,20.9c0,0.4-0.3,0.7-0.8,0.7c-0.4,0-0.8-0.2-0.8-0.7v-5.3c0-1.4-0.6-2.2-1.8-2.2c-0.9,0-1.6,0.4-2.2,1.2
			c-0.4,0.6-0.6,1-0.6,1.7v4.6c0,0.4-0.3,0.7-0.7,0.7c-0.5,0-0.8-0.2-0.8-0.7v-8c0-0.4,0.3-0.6,0.8-0.6c0.4,0,0.7,0.2,0.7,0.6v0.4
			c0,0.2,0,0.4-0.1,0.7c0.6-1.2,1.6-1.9,3.1-1.9c2,0,3,1.2,3,3.2V20.9z"/>
		<path class="st3" d="M77.4,14.9c0-1.1-0.6-1.6-1.9-1.6c-1.2,0-1.8,0.5-2.1,1.2C73.3,14.9,73,15,72.8,15c-0.1,0-0.3,0-0.4-0.1
			c-0.3-0.1-0.5-0.3-0.5-0.6c0-0.1,0-0.1,0-0.2c0.2-0.5,0.6-1,1-1.3c0.6-0.4,1.3-0.7,2.7-0.7c2.2,0,3.3,0.9,3.3,2.8v4.5
			c0,0.6,0.1,1.1,0.2,1.5c0,0,0,0.1,0,0.2c0,0.3-0.2,0.5-0.7,0.5c0,0-0.1,0-0.1,0c-0.3,0-0.6-0.1-0.7-0.4c0-0.2-0.1-0.5-0.1-0.8
			c-0.6,0.7-1.5,1.4-3.1,1.4c-1.8,0-2.9-1-2.9-2.7c0-1.6,0.9-2.5,2.5-3c0.9-0.2,1.8-0.3,3.5-0.4V14.9z M77.4,16.8
			c-1.9,0-2.8,0.2-3.5,0.5c-0.7,0.3-1,0.8-1,1.6c0,0.9,0.7,1.4,1.7,1.4c1,0,1.9-0.5,2.4-1.2c0.3-0.4,0.4-0.7,0.4-1.3V16.8z"/>
		<path class="st3" d="M81.3,9.2c0-0.4,0.3-0.7,0.8-0.7c0.4,0,0.7,0.2,0.7,0.7v11.7c0,0.4-0.3,0.7-0.7,0.7c-0.5,0-0.8-0.2-0.8-0.7
			V9.2z"/>
		<path class="st3" d="M89.9,20.8c-0.2,0.6-0.6,0.8-1.1,0.8c-0.5,0-0.9-0.2-1.1-0.8L84.6,9.4c0-0.1,0-0.2,0-0.2
			c0-0.4,0.3-0.6,0.7-0.6c0.1,0,0.1,0,0.2,0c0.3,0,0.6,0.1,0.7,0.5l2.1,7.8c0.2,0.9,0.4,2.4,0.6,3.2c0.1-0.9,0.4-2.3,0.6-3.2l2-7.6
			c0.1-0.5,0.5-0.7,1.1-0.7c0.5,0,0.9,0.2,1,0.7l2,7.6c0.2,0.8,0.4,2.4,0.6,3.2c0.2-0.9,0.4-2.4,0.6-3.2l2.1-7.8
			c0.1-0.4,0.4-0.5,0.7-0.5c0.1,0,0.1,0,0.2,0c0.4,0.1,0.7,0.3,0.7,0.6c0,0.1,0,0.1,0,0.2l-3.2,11.4c-0.2,0.6-0.6,0.8-1.1,0.8
			c-0.5,0-0.9-0.2-1.1-0.8l-1.9-7.4c-0.3-1-0.4-2.5-0.6-3.4c-0.2,0.9-0.4,2.3-0.6,3.3L89.9,20.8z"/>
		<path class="st3" d="M104,9.6c0,0.6-0.5,1.1-1.1,1.1c-0.6,0-1.1-0.5-1.1-1.1c0-0.6,0.5-1.1,1.1-1.1C103.5,8.5,104,9,104,9.6z
			 M102.2,12.9c0-0.4,0.3-0.6,0.7-0.6c0.4,0,0.8,0.2,0.8,0.6v8c0,0.4-0.3,0.7-0.8,0.7c-0.5,0-0.7-0.2-0.7-0.7V12.9z"/>
		<path class="st3" d="M106.3,12.9c0-0.4,0.3-0.6,0.8-0.6c0.4,0,0.7,0.2,0.7,0.6v0.4c0,0.2-0.1,0.5-0.1,0.8c0.3-0.8,1.1-1.8,2.5-1.9
			c0.1,0,0.2,0,0.4,0c0.2,0,0.4,0,0.7,0.1c0.4,0,0.5,0.3,0.5,0.6c0,0.1,0,0.2,0,0.3c-0.1,0.3-0.3,0.6-0.6,0.6c0,0-0.1,0-0.1,0
			c-0.2,0-0.4-0.1-0.8-0.1c-0.7,0-1.3,0.4-1.7,0.9c-0.4,0.5-0.7,1.1-0.7,1.8v4.6c0,0.4-0.3,0.7-0.7,0.7c-0.5,0-0.8-0.2-0.8-0.7V12.9
			z"/>
		<path class="st3" d="M114.2,17.2c0,2,1,3.3,2.8,3.3c1.2,0,1.8-0.6,2.2-1.5c0.1-0.3,0.4-0.4,0.6-0.4c0.1,0,0.2,0,0.3,0.1
			c0.3,0.1,0.5,0.3,0.5,0.6c0,0.1,0,0.2-0.1,0.3c-0.5,1.1-1.5,2.2-3.6,2.2c-2.7,0-4.3-1.9-4.3-4.8c0-2.9,1.5-4.9,4.2-4.9
			c2.4,0,3.8,1.9,3.9,4c0,0,0,0.1,0,0.1c0,0.6-0.3,0.9-0.8,0.9H114.2z M119.1,16c0.2,0,0.2-0.1,0.2-0.2c0,0,0,0,0-0.1
			c-0.2-1.2-0.9-2.4-2.4-2.4c-1.6,0-2.4,1.1-2.7,2.7H119.1z"/>
	</g>
</g>
</svg>
